<?xml version="1.0" encoding="UTF-8"?>
<svg xmlns="http://www.w3.org/2000/svg" viewBox="0 0 22 22">
  <rect fill="#2680e3" width="22" height="22" rx="3.37" ry="3.37"/>
  <g>
    <path fill="#fff" d="M21,13.33l-.04-4.82-5.65,1.42c-.02-.07-.02-.15-.05-.21l5.56-1.69-2.45-4.16-4.18,4.05s-.05-.05-.08-.07c-.03-.03-.05-.05-.08-.08l3.98-4.25-4.2-2.38-1.59,5.58c-.07-.02-.14-.03-.22-.04l1.32-5.67-4.82.04,1.42,5.65c-.07.02-.15.02-.21.05l-1.69-5.56L3.86,3.63l4.05,4.18s-.05.05-.08.08c-.03.03-.05.05-.08.08L3.5,3.99l-2.38,4.2,5.58,1.59c-.02.07-.03.14-.04.22l-5.67-1.32.04,4.82,5.65-1.42c.02.07.02.15.05.21l-5.56,1.69,2.45,4.16,4.18-4.05s.05.05.08.08c.03.03.05.05.08.08l-3.98,4.25,4.2,2.38,1.59-5.59c.07.02.14.03.22.04l-1.32,5.67,4.82-.04-1.42-5.65c.07-.02.15-.02.21-.05l1.69,5.56,4.16-2.45-4.05-4.18s.05-.05.08-.08c.03-.03.05-.05.08-.08l4.25,3.98,2.38-4.2-5.58-1.59c.02-.07.03-.14.04-.22l5.67,1.32Z"/>
    <g>
      <g style="opacity:.85">
        <polygon fill="#ec196f" points="11 11 9.52 1.74 12.48 1.74 11 11"/>
        <polygon fill="#f05722" points="11 11 14.35 2.24 16.91 3.72 11 11"/>
        <polygon fill="#fdbc12" points="11 11 18.28 5.09 19.76 7.65 11 11"/>
        <polygon fill="#4cbc96" points="11 11 20.26 9.52 20.26 12.48 11 11"/>
        <polygon fill="#1689b0" points="11 11 19.76 14.35 18.28 16.91 11 11"/>
        <polygon fill="#7c2e8d" points="11 11 16.91 18.28 14.35 19.76 11 11"/>
        <polygon fill="#ec196f" points="11 11 12.48 20.26 9.52 20.26 11 11"/>
        <polygon fill="#f05722" points="11 11 7.65 19.76 5.09 18.28 11 11"/>
        <polygon fill="#fdbc12" points="11 11 3.72 16.91 2.24 14.35 11 11"/>
        <polygon fill="#4cbc96" points="11 11 1.74 12.48 1.74 9.52 11 11"/>
        <polygon fill="#1689b0" points="11 11 2.24 7.65 3.72 5.09 11 11"/>
        <polygon fill="#7c2e8d" points="11 11 5.09 3.72 7.65 2.24 11 11"/>
      </g>
      <circle fill="#fff" cx="11" cy="11" r="4.08"/>
      <circle fill="#19192d" cx="11" cy="11" r="3.33"/>
      <polygon fill="#fff" points="10.07 9.7 10.07 12.3 12.3 11 10.07 9.7"/>
    </g>
  </g>
</svg>
